<?xml version="1.0" encoding="utf-8"?>
<?xml-stylesheet type="text/xsl" href="rss1.xsl"?>
<rss version="2.0" xmlns:atom="http://www.w3.org/2005/Atom" xmlns:content="http://purl.org/rss/1.0/modules/content/" xmlns:dc="http://purl.org/dc/elements/1.1/" xmlns:media="http://search.yahoo.com/mrss/">
<channel>
 <title>Getty</title>
 <link>http://www.gettyimg.com/</link>
 <atom:link href="http://www.gettyimg.com/" rel="self" type="application/rss+xml" />

 
                <item>
                <title><![CDATA[【Requests】[REQ AUD] - Billie Eilish - HIT ME HARD AND SOFT (Slowed + Sped Up)]]></title>
                <link><![CDATA[https://sharemania.us/threads/billie-eilish-hit-me-hard-and-soft-slowed-sped-up.245180/]]></link>
                <description><![CDATA[<article>
<blockquote class="messageText SelectQuoteContainer ugc baseHtml">
<div style="text-align: center">any chance of someone having them in lossless? i saw a user on Twitter who had it in .WAV format​</div>
<div class="messageTextEndMarker">&nbsp;</div>
</blockquote>
</article>]]></description>
                <author><![CDATA[Nuric]]></author>
                </item>

                
                <item>
                <title><![CDATA[【Apple Music】WEB-RiP - Eagles - Hotel California (Live at Capital Centre, Washington, D.C., (1080p)]]></title>
                <link><![CDATA[https://sharemania.us/threads/eagles-hotel-california-live-at-capital-centre-washington-d-c-1080p.245181/]]></link>
                <description><![CDATA[<article>
<blockquote class="messageText SelectQuoteContainer ugc baseHtml">
<img src="https://i.postimg.cc/KY6m7TvN/Eagles-Hotel-California-Live-at-Capital-Centre-Washington-D-C-mp4.jpg" class="bbCodeImage LbImage" alt="[​IMG]" data-url="https://i.postimg.cc/KY6m7TvN/Eagles-Hotel-California-Live-at-Capital-Centre-Washington-D-C-mp4.jpg" style=""><br>
<br>
<div class="bbCodeBlock bbCodeCode">
<div class="type">Code:</div>
<pre>General
Complete name                  : G:\Новая папка\Eagles - Hotel California (Live at Capital Centre, Washington, D.C.,.mp4
Format                         : MPEG-4
Format profile                 : Base Media
Codec ID                       : isom (isom/iso2/avc1/mp41)
File size                      : 493 MiB
Duration                       : 6 min 44 s
Overall bit rate               : 10.2 Mb/s
Frame rate                     : 23.976 FPS
Movie name                     : Hotel California (Live at Capital Centre, Washington, D.C., 3/21/1977)
Performer                      : Eagles
Genre                          : Rock
ContentType                    : Music Video
Recorded date                  : 1977-01-01 08:00:00 UTC
Writing application            : Lavf56.30.100
Copyright                      : ℗ 1977 Eagles Recording Co., under exclusive license to Warner Music Group.

Video
ID                             : 1
Format                         : AVC
Format/Info                    : Advanced Video Codec
Format profile                 : High@L4
Format settings                : CABAC / 5 Ref Frames
Format settings, CABAC         : Yes
Format settings, Reference fra : 5 frames
Format settings, Slice count   : 8 slices per frame
Codec ID                       : avc1
Codec ID/Info                  : Advanced Video Coding
Duration                       : 6 min 44 s
Bit rate                       : 9 947 kb/s
Width                          : 1 532 pixels
Height                         : 1 080 pixels
Display aspect ratio           : 1.419
Frame rate mode                : Constant
Frame rate                     : 23.976 (24000/1001) FPS
Color space                    : YUV
Chroma subsampling             : 4:2:0
Bit depth                      : 8 bits
Scan type                      : Progressive
Bits/(Pixel*Frame)             : 0.251
Stream size                    : 480 MiB (97%)
Language                       : English
Color range                    : Limited
Color primaries                : BT.709
Transfer characteristics       : BT.709
Matrix coefficients            : BT.709
Codec configuration box        : avcC

Audio
ID                             : 2
Format                         : AAC LC
Format/Info                    : Advanced Audio Codec Low Complexity
Codec ID                       : mp4a-40-2
Duration                       : 6 min 44 s
Bit rate mode                  : Constant
Bit rate                       : 273 kb/s
Channel(s)                     : 2 channels
Channel layout                 : L R
Sampling rate                  : 48.0 kHz
Frame rate                     : 46.875 FPS (1024 SPF)
Compression mode               : Lossy
Stream size                    : 13.2 MiB (3%)
Default                        : Yes
Alternate group                : 1

</pre>
</div>
<div class="bbCodeBlock bbCodeVfcHH HiddenContent">
<div class="attribution type">Hidden Content:</div>
<blockquote>You must either reply or click 'Like' to see the hidden information contained here.</blockquote>
</div>
<div class="messageTextEndMarker">&nbsp;</div>
</blockquote>
</article>]]></description>
                <author><![CDATA[vitalya3]]></author>
                </item>

                </channel></rss>